<?xml version="1.0" standalone="no"?>
<!DOCTYPE svg PUBLIC "-//W3C//DTD SVG 20010904//EN"
 "http://www.w3.org/TR/2001/REC-SVG-20010904/DTD/svg10.dtd">
<svg version="1.0" xmlns="http://www.w3.org/2000/svg"
 width="1000.000000pt" height="1000.000000pt" viewBox="0 0 1000.000000 1000.000000"
 preserveAspectRatio="xMidYMid meet">
<metadata>
Created by potrace 1.11, written by Peter Selinger 2001-2013
</metadata>
<g transform="translate(0.000000,1000.000000) scale(0.100000,-0.100000)"
fill="#000000" stroke="none">
<path d="M4968 9865 c-2 -2 -68 -6 -148 -9 -80 -4 -161 -8 -180 -10 -19 -2
-69 -7 -110 -11 -120 -11 -141 -13 -184 -20 -23 -4 -52 -8 -66 -10 -241 -36
-575 -111 -680 -152 -8 -4 -17 -7 -20 -8 -85 -25 -216 -74 -285 -105 -157 -70
-418 -209 -469 -251 -6 -5 -50 -37 -97 -71 -183 -133 -348 -294 -523 -513
-118 -146 -256 -356 -316 -480 -11 -22 -24 -47 -30 -55 -11 -18 -100 -208
-100 -215 0 -3 -9 -24 -19 -48 -44 -96 -158 -461 -177 -567 -2 -14 -7 -36 -10
-50 -3 -14 -8 -36 -10 -50 -2 -14 -9 -45 -14 -70 -10 -46 -35 -222 -46 -320
-3 -30 -7 -59 -8 -65 -1 -8 169 -35 319 -50 33 -3 71 -8 85 -10 14 -3 45 -7
70 -10 219 -26 452 -55 479 -60 9 -2 47 -6 83 -9 37 -4 75 -8 85 -10 10 -2 45
-7 78 -11 33 -4 74 -8 90 -10 17 -3 54 -7 83 -10 29 -4 62 -8 73 -10 11 -2 48
-7 82 -10 34 -3 73 -8 87 -10 14 -2 81 -11 150 -19 69 -8 215 -27 325 -41 247
-31 268 -33 330 -40 28 -3 62 -8 78 -11 15 -3 27 -2 28 3 0 4 2 15 3 23 2 8 6
35 9 60 15 115 25 169 62 346 6 27 44 153 52 174 4 8 7 17 8 20 9 33 26 73 72
170 31 63 58 117 62 120 3 3 19 25 36 49 117 172 351 326 574 375 157 36 389
40 527 11 129 -27 135 -29 245 -84 231 -115 354 -338 352 -641 0 -77 -2 -92
-23 -170 -46 -169 -230 -404 -476 -607 -167 -137 -436 -363 -449 -377 -5 -6
-37 -33 -70 -61 -33 -27 -62 -52 -65 -55 -3 -3 -41 -36 -85 -74 -80 -69 -107
-93 -290 -261 -355 -326 -527 -543 -679 -857 -133 -275 -204 -585 -222 -978
-8 -171 -11 -480 -4 -489 3 -4 560 -7 1238 -7 l1232 0 1 26 c4 132 8 194 14
245 27 242 93 452 191 605 118 188 359 430 694 701 284 229 418 339 431 351 8
8 48 42 89 78 41 35 95 82 119 104 24 23 60 56 80 74 367 340 596 627 733 922
69 146 72 153 107 260 77 237 102 415 96 685 -4 200 -8 243 -35 396 -65 367
-192 673 -403 969 -122 171 -327 386 -503 526 -55 43 -101 82 -104 85 -3 3
-70 49 -150 101 -157 104 -300 183 -450 247 -52 23 -104 46 -115 50 -102 45
-445 150 -575 176 -34 7 -188 35 -220 40 -19 3 -42 8 -50 10 -8 2 -44 7 -80
10 -36 4 -67 8 -70 10 -3 1 -41 6 -85 10 -44 4 -93 9 -110 10 -148 14 -736 30
-747 20z"/>
<path d="M3550 1329 l0 -1169 1325 0 c1255 0 1325 1 1326 18 0 23 0 2237 0
2284 l-1 37 -1325 0 -1325 -1 0 -1169z"/>
</g>
</svg>
